<svg xmlns="http://www.w3.org/2000/svg" viewBox="0 0 1200 780" role="img" aria-labelledby="title desc">
  <title id="title">Research portfolio cover placeholder</title>
  <desc id="desc">A light academic diagram with neural, hardware, and energy-routing motifs.</desc>
  <defs>
    <linearGradient id="bg" x1="0" x2="1" y1="0" y2="1">
      <stop offset="0" stop-color="#eef3f5"/>
      <stop offset="1" stop-color="#d9e2e6"/>
    </linearGradient>
    <linearGradient id="accent" x1="0" x2="1">
      <stop offset="0" stop-color="#4d7c8a"/>
      <stop offset="1" stop-color="#c47a53"/>
    </linearGradient>
    <filter id="shadow" x="-20%" y="-20%" width="140%" height="140%">
      <feDropShadow dx="0" dy="16" stdDeviation="18" flood-color="#415461" flood-opacity=".18"/>
    </filter>
  </defs>
  <rect width="1200" height="780" fill="url(#bg)"/>
  <g opacity=".28" stroke="#879aa4" stroke-width="1">
    <path d="M0 116h1200M0 232h1200M0 348h1200M0 464h1200M0 580h1200M0 696h1200"/>
    <path d="M120 0v780M240 0v780M360 0v780M480 0v780M600 0v780M720 0v780M840 0v780M960 0v780M1080 0v780"/>
  </g>
  <g filter="url(#shadow)">
    <rect x="132" y="120" width="936" height="540" rx="18" fill="#ffffff" opacity=".92"/>
    <rect x="168" y="156" width="312" height="468" rx="14" fill="#f7fafb" stroke="#c8d5da"/>
    <rect x="520" y="156" width="512" height="212" rx="14" fill="#f7fafb" stroke="#c8d5da"/>
    <rect x="520" y="412" width="512" height="212" rx="14" fill="#f7fafb" stroke="#c8d5da"/>
  </g>
  <g fill="none" stroke-linecap="round" stroke-linejoin="round">
    <path d="M220 512C306 400 360 305 432 220" stroke="url(#accent)" stroke-width="9"/>
    <path d="M220 512c64 14 145 11 228-9" stroke="#4d7c8a" stroke-width="5" opacity=".85"/>
    <circle cx="220" cy="512" r="18" fill="#4d7c8a"/>
    <circle cx="296" cy="408" r="14" fill="#6f99a3"/>
    <circle cx="362" cy="310" r="14" fill="#9ba88a"/>
    <circle cx="432" cy="220" r="18" fill="#c47a53"/>
    <path d="M604 250h82m0 0 52-40m-52 40 52 40m0-80h84m0 80h84" stroke="#58717c" stroke-width="7"/>
    <circle cx="604" cy="250" r="20" fill="#35505c"/>
    <circle cx="686" cy="250" r="18" fill="#4d7c8a"/>
    <circle cx="738" cy="210" r="18" fill="#c47a53"/>
    <circle cx="738" cy="290" r="18" fill="#c47a53"/>
    <circle cx="822" cy="210" r="16" fill="#6f99a3"/>
    <circle cx="822" cy="290" r="16" fill="#6f99a3"/>
    <circle cx="906" cy="210" r="16" fill="#35505c"/>
    <circle cx="906" cy="290" r="16" fill="#35505c"/>
    <path d="M594 536h92v-74h92v74h92v-74h92" stroke="#58717c" stroke-width="8"/>
    <path d="M594 568h368" stroke="#c47a53" stroke-width="5" opacity=".75"/>
    <rect x="570" y="452" width="44" height="44" rx="6" fill="#4d7c8a"/>
    <rect x="662" y="452" width="44" height="44" rx="6" fill="#8aa7ad"/>
    <rect x="754" y="452" width="44" height="44" rx="6" fill="#6f99a3"/>
    <rect x="846" y="452" width="44" height="44" rx="6" fill="#c47a53"/>
    <rect x="938" y="452" width="44" height="44" rx="6" fill="#35505c"/>
  </g>
  <g font-family="Poppins, Arial, sans-serif" fill="#2d3940">
    <text x="190" y="205" font-size="25" font-weight="600">Research Portfolio</text>
    <text x="190" y="247" font-size="17">AI systems, hardware, and</text>
    <text x="190" y="274" font-size="17">energy-aware computation.</text>
    <text x="550" y="205" font-size="20" font-weight="600">Multi-agent models</text>
    <text x="550" y="460" font-size="20" font-weight="600">Digital systems</text>
  </g>
</svg>
