<svg xmlns="http://www.w3.org/2000/svg" viewBox="0 0 980 520" role="img" aria-labelledby="title desc">
  <title id="title">Software systems placeholder figure</title>
  <desc id="desc">An academic software figure for MNIST and bookstore projects.</desc>
  <rect width="980" height="520" fill="#f6f8f8"/>
  <g transform="translate(72 70)" fill="#fff" stroke="#c9d5da" stroke-width="2">
    <rect width="380" height="380" rx="16"/>
    <rect x="452" width="380" height="380" rx="16"/>
  </g>
  <g transform="translate(112 122)">
    <rect width="76" height="76" rx="10" fill="#2d3940"/>
    <rect x="100" width="76" height="76" rx="10" fill="#8aa7ad"/>
    <rect x="200" width="76" height="76" rx="10" fill="#2d3940"/>
    <rect y="100" width="76" height="76" rx="10" fill="#8aa7ad"/>
    <rect x="100" y="100" width="76" height="76" rx="10" fill="#2d3940"/>
    <rect x="200" y="100" width="76" height="76" rx="10" fill="#8aa7ad"/>
    <path d="M318 38h84m-84 100h84" stroke="#4d7c8a" stroke-width="7" stroke-linecap="round"/>
  </g>
  <g transform="translate(566 128)" fill="none" stroke-linecap="round" stroke-linejoin="round">
    <rect x="0" y="0" width="238" height="164" rx="12" fill="#f7fafb" stroke="#aebdc4"/>
    <path d="M24 42h190M24 82h190M24 122h118" stroke="#58717c" stroke-width="8"/>
    <path d="M20 218h220" stroke="#c47a53" stroke-width="7"/>
    <circle cx="42" cy="218" r="14" fill="#4d7c8a"/>
    <circle cx="120" cy="218" r="14" fill="#6f99a3"/>
    <circle cx="198" cy="218" r="14" fill="#c47a53"/>
  </g>
  <g font-family="Poppins, Arial, sans-serif" text-anchor="middle" fill="#2d3940">
    <text x="262" y="410" font-size="18" font-weight="600">DualMNIST experiments</text>
    <text x="714" y="410" font-size="18" font-weight="600">Bookstore management system</text>
  </g>
</svg>
